<svg xmlns="http://www.w3.org/2000/svg" width="1920" height="815"><clipPath id="a"><path d="M0 0h1920v815H0z"/></clipPath><linearGradient id="b" x1=".677" x2=".5" y1=".273" y2="1" gradientUnits="objectBoundingBox"><stop offset="0" stop-color="#03d1cf" stop-opacity=".329"/><stop offset="1" stop-color="#4e09f8" stop-opacity="0"/></linearGradient><linearGradient id="c" x1=".323" x2=".5" y1=".273" y2="1" gradientUnits="objectBoundingBox"><stop offset="0" stop-color="#03d1cf" stop-opacity=".349"/><stop offset="1" stop-color="#4e09f8" stop-opacity="0"/></linearGradient><linearGradient id="d" x1=".323" x2=".5" y1=".273" y2="1" gradientUnits="objectBoundingBox"><stop offset="0" stop-color="#03d1cf" stop-opacity=".31"/><stop offset="1" stop-color="#4e09f8" stop-opacity="0"/></linearGradient><linearGradient id="e" x1=".323" x2=".5" y1=".273" y2="1" gradientUnits="objectBoundingBox"><stop offset="0" stop-color="#03d1cf" stop-opacity=".522"/><stop offset="1" stop-color="#4e09f8" stop-opacity="0"/></linearGradient><g clip-path="url(#a)"><path fill="url(#b)" d="m554 0 554 755H0z" transform="rotate(180 1189 344.5)"/><path fill="url(#b)" d="m432 0 432 589H0z" transform="rotate(180 903 275)"/><path fill="url(#c)" d="m432 0 432 589H0z" transform="translate(1116 311)"/><path fill="url(#d)" d="m432 0 432 589H0z" transform="translate(1116 311)"/><path fill="url(#e)" d="m256 0 256 349H0z" transform="translate(1568 518)"/><path fill="#fff" d="m1920 92 554 755H1366z" opacity=".09"/></g></svg>