<svg xmlns="http://www.w3.org/2000/svg" width="40" height="39.999"><linearGradient id="a" x1=".955" x2="-.423" y1="-.442" y2="1.391" gradientUnits="objectBoundingBox"><stop offset="0" stop-color="#0ac3ce"/><stop offset="1" stop-color="#4610f1"/></linearGradient><g fill="url(#a)"><path d="M40 20.011a20.023 20.023 0 0 1-16.654 19.708 21.527 21.527 0 0 1-3.393.28A19.883 19.883 0 0 1 2.179 29.066l-.313-.592h5.238l.132.181a15.467 15.467 0 0 0 15.32 6.521A15.45 15.45 0 0 0 35.339 18.76l-9.357-.017 2.734 7.723-3.344 4.594-6-17.009 19.735.033.082.3a17.72 17.72 0 0 1 .527 2.289A19.191 19.191 0 0 1 40 20.011z"/><path d="M38.124 11.467h-5.271l-.132-.181a15.44 15.44 0 0 0-15.3-6.5 15.456 15.456 0 0 0-12.8 16.4l9.39.017-2.734-7.722 3.36-4.594 5.98 17.008-15.073-.016H.866l-.082-.3a17.778 17.778 0 0 1-.494-2.255A19.989 19.989 0 0 1 16.664.289a19.929 19.929 0 0 1 21.151 10.587z"/></g></svg>