<svg xmlns="http://www.w3.org/2000/svg" width="96" height="96"><path fill="rgba(255,255,255,0)" d="M0 0h96v96H0z"/><path fill="#2d374b" d="m57.848 43.931 6.56-11.132 17.683 27.542.008 5.286-.058-36.372a2.74 2.74 0 0 0-1.267-2.182L48.939 8.76a2.805 2.805 0 0 0-2.432.012 2.618 2.618 0 0 0-.285.165l-.111.07-30.9 17.907-.12.054a2.794 2.794 0 0 0-.456.266 2.748 2.748 0 0 0-1.14 2.06l.049 29.639 16.467-25.529c2.074-3.385 6.592-4.475 10.786-4.416l4.923.13-29 46.516 3.419 1.968 29.347-48.437 12.974-.047-29.276 49.659 12.2 7.017 1.458.838a2.8 2.8 0 0 0 1.965.039L81.09 67.962l-6.169 3.579Zm2.5 36.05-12.32-19.34 7.522-12.764 16.183 25.508Z" data-name="Path 348"/><path fill="#28a0f0" d="m48.028 60.641 12.322 19.34 11.383-6.6L55.55 47.877Z" data-name="Path 349"/><path fill="#28a0f0" d="m82.1 65.631-.008-5.286-17.683-27.542-6.56 11.132 17.07 27.608 6.172-3.577a2.736 2.736 0 0 0 1.01-1.992Z" data-name="Path 350"/><path fill="#fff" d="m7.999 70.611 8.716 5.022 29-46.515-4.923-.13c-4.194-.059-8.712 1.031-10.786 4.416L13.54 58.933l-5.541 8.514Z" data-name="Path 351"/><path fill="#fff" d="m62.464 29.118-12.974.047-29.356 48.437 10.259 5.907 2.79-4.732Z" data-name="Path 352"/><path fill="#96bedc" d="M87.567 29.051a8.264 8.264 0 0 0-3.879-6.643L51.434 3.86a8.391 8.391 0 0 0-7.4 0c-.27.136-31.366 18.17-31.366 18.17a8.255 8.255 0 0 0-4.67 7v38.417l5.541-8.514-.048-29.639a2.64 2.64 0 0 1 .039-.32 2.729 2.729 0 0 1 1.1-1.74c.146-.1 31.774-18.412 31.874-18.462a2.806 2.806 0 0 1 2.432-.012l31.839 18.313a2.74 2.74 0 0 1 1.267 2.182V65.97a2.677 2.677 0 0 1-.952 1.992l-6.172 3.577-3.185 1.844-11.383 6.6-11.544 6.69a2.8 2.8 0 0 1-1.965-.039l-13.66-7.857-2.79 4.732 12.274 7.067a102.548 102.548 0 0 0 1.947 1.084 7.974 7.974 0 0 0 3.259.67 8.206 8.206 0 0 0 3.005-.565l33.532-19.416a8.2 8.2 0 0 0 3.159-6.176Z" data-name="Path 353"/></svg>