<svg xmlns="http://www.w3.org/2000/svg" width="40" height="40"><g><rect width="40" height="40" fill="none" data-name="Rectangle 1" rx="4"/><path fill="#4e09f8" d="M19.363 7.953a1.171 1.171 0 0 0-1.906 0c-2.192 3.172-7.405 11.078-7.405 14.546a8.162 8.162 0 0 0 8.358 7.949 8.162 8.162 0 0 0 8.358-7.949c0-3.468-5.216-11.374-7.405-14.546Z" data-name="Path 171"/><path fill="rgba(3,209,207,0.99)" d="M20 18.49a.634.634 0 0 0-.63-.63h-.585v-5.04a.634.634 0 0 0-.63-.63h-1.8a.576.576 0 0 0-.518.344l-.63 1.17a.634.634 0 0 0 .029.62.633.633 0 0 0 .531.3h.587v3.239h-.585a.634.634 0 0 0-.63.63v1.169a.634.634 0 0 0 .63.63h3.6a.634.634 0 0 0 .63-.63ZM32.149 8.461a2.646 2.646 0 0 0-1.5-2.433 12.7 12.7 0 0 0-5.36-1.125 30.774 30.774 0 0 0-8.035 1.453 28.556 28.556 0 0 1-7.392 1.366A10.57 10.57 0 0 1 6.4 7.169a2.519 2.519 0 0 0-.836-.142A2.609 2.609 0 0 0 3 9.675v14.341a2.646 2.646 0 0 0 1.5 2.433 12.7 12.7 0 0 0 5.36 1.125 30.774 30.774 0 0 0 8.04-1.452 28.556 28.556 0 0 1 7.392-1.366 10.57 10.57 0 0 1 3.464.552 2.519 2.519 0 0 0 .836.142 2.612 2.612 0 0 0 2.561-2.654Z" data-name="Path 174"/><path fill="#303fd0" d="M25.851 26.013a.634.634 0 0 0-.63-.63h-.585v-5.04a.634.634 0 0 0-.63-.63h-1.8a.576.576 0 0 0-.518.344l-.63 1.17a.634.634 0 0 0 .029.62.633.633 0 0 0 .531.3h.587v3.239h-.585a.634.634 0 0 0-.63.63v1.169a.634.634 0 0 0 .63.63h3.6a.634.634 0 0 0 .63-.63ZM38 15.984a2.646 2.646 0 0 0-1.5-2.433 12.7 12.7 0 0 0-5.36-1.125 30.774 30.774 0 0 0-8.035 1.453 28.556 28.556 0 0 1-7.392 1.366 10.57 10.57 0 0 1-3.462-.553 2.519 2.519 0 0 0-.836-.142 2.609 2.609 0 0 0-2.564 2.648v14.341a2.646 2.646 0 0 0 1.5 2.433 12.7 12.7 0 0 0 5.36 1.125 30.774 30.774 0 0 0 8.04-1.452 28.556 28.556 0 0 1 7.392-1.366 10.57 10.57 0 0 1 3.464.552 2.519 2.519 0 0 0 .836.142 2.612 2.612 0 0 0 2.561-2.654Z" data-name="Path 175"/><path fill="rgba(3,209,207,0.99)" stroke="rgba(0,0,0,0)" d="M0 15.115V4.773a2.61 2.61 0 0 1 2.561-2.649 2.513 2.513 0 0 1 .836.143 10.561 10.561 0 0 0 3.463.552 28.558 28.558 0 0 0 7.392-1.366A30.79 30.79 0 0 1 22.288 0Q22.8 0 23.3.035v10.336a2.612 2.612 0 0 1-2.562 2.655 2.525 2.525 0 0 1-.835-.142 10.574 10.574 0 0 0-3.465-.552A28.526 28.526 0 0 0 9.045 13.7a30.777 30.777 0 0 1-8.035 1.452Q.5 15.149 0 15.115Z" data-name="Intersection 2" style="mix-blend-mode:screen;isolation:isolate" transform="translate(8.85 12.425)"/></g></svg>