<svg xmlns="http://www.w3.org/2000/svg" width="24" height="24"><linearGradient id="a" x1=".5" x2=".435" y1="-.1" y2="1" gradientUnits="objectBoundingBox"><stop offset="0" stop-color="#0ac3ce"/><stop offset="1" stop-color="#2d42fc"/></linearGradient><path fill="none" d="M0 0h24v23.833H0z"/><g fill="url(#a)"><path d="M23.833 12.089a11.931 11.931 0 0 1-9.923 11.743 12.924 12.924 0 0 1-2.022.167 11.847 11.847 0 0 1-10.59-6.514l-.186-.353h3.121l.079.107a9.214 9.214 0 0 0 9.128 3.885 9.2 9.2 0 0 0 7.616-9.781l-5.575-.01 1.629 4.6-1.992 2.737-3.573-10.134 11.758.02.049.177a10.559 10.559 0 0 1 .314 1.364 11.435 11.435 0 0 1 .167 1.992z"/><path d="M22.714 7h-3.141l-.079-.108a9.2 9.2 0 0 0-9.118-3.875 9.209 9.209 0 0 0-7.626 9.771l5.594.01-1.629-4.6 2-2.737 3.563 10.134-8.981-.009H.51l-.049-.177a10.6 10.6 0 0 1-.294-1.344A11.91 11.91 0 0 1 9.923.34a11.875 11.875 0 0 1 12.6 6.308z"/></g></svg>