<svg xmlns="http://www.w3.org/2000/svg" width="40" height="40"><g><rect width="40" height="40" fill="none" data-name="Rectangle 1" rx="4"/><g data-name="Group 86"><path fill="rgba(3,209,207,0.99)" d="M15.547 1.677a1.617 1.617 0 0 0-2.631 0C9.893 6.055 2.693 16.97 2.693 21.757c0 6.06 5.166 10.974 11.538 10.974S25.77 27.817 25.77 21.757c0-4.787-7.197-15.702-10.223-20.08Z" data-name="Path 172"/><path fill="#303fd0" d="M27.086 7.446a1.617 1.617 0 0 0-2.631 0c-3.023 4.378-10.223 15.293-10.223 20.08 0 6.06 5.166 10.974 11.538 10.974s11.539-4.914 11.539-10.974c0-4.787-7.197-15.702-10.223-20.08Z" data-name="Path 173"/><path fill="#50d0fe" stroke="rgba(0,0,0,0)" d="M14.231 27.526c0-3.652 4.19-10.873 7.521-16.035 2.2 3.9 4.017 7.858 4.017 10.266a11.188 11.188 0 0 1-10.2 10.9 10.505 10.505 0 0 1-1.338-5.131Z" data-name="Intersection 1"/></g></g></svg>