<svg xmlns="http://www.w3.org/2000/svg" width="64" height="64" viewBox="0 0 16 16"><path fill="rgba(255,255,255,0)" d="M0 0h24v24H0z" data-name="Rectangle 486"/><path fill="#a0a3c4" d="M8.004 1.188A6.562 6.562 0 0 0 1.442 7.75a6.562 6.562 0 0 0 6.562 6.563 6.562 6.562 0 0 0 6.563-6.563 6.562 6.562 0 0 0-6.563-6.562Zm-.619 9.881a.881.881 0 0 1-.255-.619v-.875a.875.875 0 0 0-.45-.766c-.394-.219-.954-.52-1.334-.714a3.908 3.908 0 0 1-.868-.595l-.02-.021a3.024 3.024 0 0 1-.493-.564c-.217-.319-.543-.8-.8-1.189a5.275 5.275 0 0 1 2.939-2.864l.391.2a.438.438 0 0 0 .636-.39v-.089a5.236 5.236 0 0 1 .873-.083l.567.567a.441.441 0 0 1 0 .619l-.129.126-.282.288a.215.215 0 0 0 0 .308l.126.13a.215.215 0 0 1 0 .308l-.219.219a.215.215 0 0 1-.152.065h-.249a.217.217 0 0 0-.152.062l-.272.263a.23.23 0 0 0-.043.256l.427.851a.219.219 0 0 1-.2.318h-.147a.227.227 0 0 1-.146-.055L6.882 6.6a.441.441 0 0 0-.427-.085l-.851.285a.327.327 0 0 0-.225.311.322.322 0 0 0 .182.291l.3.154a1.894 1.894 0 0 0 .831.195c.288 0 .616.745.874.875h1.825a.879.879 0 0 1 .619.256l.374.373a.841.841 0 0 1 .245.591 1.28 1.28 0 0 1-.374.9 23.4 23.4 0 0 0-.311.308.654.654 0 0 0-.169.294 4.534 4.534 0 0 1-.129.461l-.384 1.032A5.226 5.226 0 0 1 8.004 13v-.53a2.044 2.044 0 0 0-.619-1.401Zm5.242-2.82a.656.656 0 0 1-.387-.273l-.493-.738a.655.655 0 0 1 0-.725l.536-.807a.669.669 0 0 1 .252-.222l.16-.08a5.21 5.21 0 0 1 .56 2.346 5.251 5.251 0 0 1-.044.644Z" data-name="Path 4459"/></svg>