<svg xmlns="http://www.w3.org/2000/svg" width="47" height="40"><rect width="40" height="32" fill="#03cfcd" rx="4"/><rect width="40" height="32" x="7" y="8" fill="#303fd0" rx="4"/><path fill="#50d0fe" d="M11 8h29v20a4 4 0 0 1-4 4H7V12a4 4 0 0 1 4-4z"/><path fill="#fff" d="M41.376 10.25H29.385a2.437 2.437 0 0 0-1.724 4.161l3.291 3.291L23.5 25.15l-7.452-7.452a3.249 3.249 0 0 0-4.6 0l-6.972 6.981a1.625 1.625 0 0 0 0 2.3l2.3 2.3a1.625 1.625 0 0 0 2.3 0l4.678-4.679 7.446 7.45a3.249 3.249 0 0 0 4.6 0l9.75-9.75 3.291 3.291A2.438 2.438 0 0 0 43 23.865v-11.99a1.623 1.623 0 0 0-1.624-1.625z"/></svg>