<svg xmlns="http://www.w3.org/2000/svg" width="42.872" height="40"><g transform="translate(1.436)"><rect width="40" height="40" fill="none" data-name="Rectangle 1" rx="4"/><path fill="#04cfd0" d="m13.202 31.464-9.947-9.947a3.309 3.309 0 0 1 2.34-5.65l4.396-.002.001-9.096a3.31 3.31 0 0 1 3.31-3.309h3.308a3.31 3.31 0 0 1 3.31 3.31l.001 9.095h4.397a3.309 3.309 0 0 1 2.34 5.65l-9.948 9.949a2.482 2.482 0 0 1-3.508 0Z" data-name="Path 178"/><path fill="#303fd0" d="m26.801 4.569 9.946 9.946a3.309 3.309 0 0 1-2.34 5.65H30.01v9.097a3.31 3.31 0 0 1-3.31 3.31h-3.308a3.31 3.31 0 0 1-3.31-3.31v-9.097h-4.397a3.309 3.309 0 0 1-2.34-5.65L23.29 4.57a2.482 2.482 0 0 1 3.51 0Z" data-name="Path 179"/><path fill="#04cfd0" stroke="rgba(0,0,0,0)" d="M7.707 12.224h-4.4A3.308 3.308 0 0 1 .971 6.575L7.544 0v7.925h4.4a3.309 3.309 0 0 1 2.34 5.649l-6.577 6.574Z" data-name="Intersection 3" style="mix-blend-mode:screen;isolation:isolate" transform="translate(12.375 7.941)"/></g></svg>