<svg xmlns="http://www.w3.org/2000/svg" width="47" height="41"><g transform="translate(45 -33)"><rect width="32" height="32" fill="rgba(3,209,207,0.99)" data-name="Rectangle 423" rx="5" transform="translate(-45 33)"/><rect width="32" height="32" fill="#303fd0" data-name="Rectangle 424" rx="5" transform="translate(-30 42)"/><path fill="#50d0fe" d="M-30 65V47a5 5 0 0 1 5-5h12v18a5 5 0 0 1-5 5Z" data-name="Intersection 34"/><path fill="#fff" d="M-34.501 53.072a3.861 3.861 0 0 0 3.858-3.858 3.861 3.861 0 0 0-3.858-3.857 3.861 3.861 0 0 0-3.857 3.857 3.861 3.861 0 0 0 3.857 3.858Zm27 0a3.861 3.861 0 0 0 3.858-3.858 3.861 3.861 0 0 0-3.858-3.858 3.861 3.861 0 0 0-3.858 3.858 3.861 3.861 0 0 0 3.861 3.858Zm1.932 1.927h-3.858a3.846 3.846 0 0 0-2.718 1.121 8.817 8.817 0 0 1 4.527 6.594h3.978a1.927 1.927 0 0 0 1.929-1.929v-1.927a3.861 3.861 0 0 0-3.858-3.859Zm-15.43 0a6.747 6.747 0 0 0 6.751-6.751 6.747 6.747 0 0 0-6.751-6.749 6.747 6.747 0 0 0-6.751 6.751 6.747 6.747 0 0 0 6.751 6.749Zm4.629 1.93h-.5a9.495 9.495 0 0 1-4.129.964 9.515 9.515 0 0 1-4.129-.964h-.5a6.945 6.945 0 0 0-6.944 6.944v1.736a2.894 2.894 0 0 0 2.893 2.89h17.359a2.894 2.894 0 0 0 2.893-2.89v-1.736a6.945 6.945 0 0 0-6.943-6.944Zm-13.484-.807a3.846 3.846 0 0 0-2.718-1.123h-3.857a3.861 3.861 0 0 0-3.858 3.859v1.929a1.927 1.927 0 0 0 1.929 1.929h3.971a8.839 8.839 0 0 1 4.533-6.594Z" data-name="Path 1618"/></g></svg>