<svg xmlns="http://www.w3.org/2000/svg" width="49" height="49.792"><path fill="#03cfcd" d="M37.207 6.3 21.536.321A4.878 4.878 0 0 0 19.8 0a4.878 4.878 0 0 0-1.738.321L2.389 6.3A3.712 3.712 0 0 0 0 9.767v20.062A3.712 3.712 0 0 0 2.389 33.3l15.671 5.975a4.878 4.878 0 0 0 1.74.325 4.878 4.878 0 0 0 1.738-.321L37.207 33.3a3.712 3.712 0 0 0 2.393-3.471V9.767A3.712 3.712 0 0 0 37.207 6.3z"/><path fill="#303fd0" d="M46.611 16.496 30.94 10.517a4.878 4.878 0 0 0-1.736-.321 4.878 4.878 0 0 0-1.738.321l-15.673 5.979a3.712 3.712 0 0 0-2.389 3.467v20.062a3.712 3.712 0 0 0 2.389 3.471l15.671 5.975a4.878 4.878 0 0 0 1.74.325 4.878 4.878 0 0 0 1.738-.321l15.669-5.979a3.712 3.712 0 0 0 2.393-3.471V19.963a3.712 3.712 0 0 0-2.393-3.467z"/><path fill="#50d0fe" d="m18.06 39.276-8.656-3.303v-16.01a3.714 3.714 0 0 1 2.389-3.467l15.671-5.98a4.88 4.88 0 0 1 3.476 0l8.656 3.3v16.01a3.712 3.712 0 0 1-2.392 3.47l-15.668 5.98a4.88 4.88 0 0 1-3.476 0z"/><path fill="#fff" d="m16.981 5.857-7.338 7.339a2.44 2.44 0 0 0-.53 2.66 2.438 2.438 0 0 0 2.259 1.504l3.24.001v8.422a2.441 2.441 0 0 0 2.44 2.44h2.44a2.441 2.441 0 0 0 2.441-2.44v-8.421h3.244a2.441 2.441 0 0 0 1.726-4.167L19.568 5.86a1.831 1.831 0 0 0-2.587-.003zm13.045 37.867 7.333-7.332a2.441 2.441 0 0 0-1.726-4.167l-3.246-.003V23.8a2.441 2.441 0 0 0-2.441-2.441h-2.44a2.441 2.441 0 0 0-2.44 2.442v8.42h-3.244a2.441 2.441 0 0 0-1.726 4.167l7.335 7.335a1.831 1.831 0 0 0 2.59 0z"/></svg>