<svg xmlns="http://www.w3.org/2000/svg" width="32" height="32"><path fill="none" d="M0 0h32v32H0z"/><path fill="#91929e" d="M16.078 3.003A13.076 13.076 0 0 0 3 16.078a13.076 13.076 0 0 0 13.078 13.078 13.076 13.076 0 0 0 13.078-13.078A13.076 13.076 0 0 0 16.078 3.003zm6.423 8.96-2.146 10.111c-.158.717-.585.891-1.181.554l-3.274-2.41-1.573 1.518a.825.825 0 0 1-.659.322l.232-3.327 6.059-5.474c.264-.232-.058-.364-.406-.132l-7.488 4.714-3.227-1.007c-.7-.221-.717-.7.148-1.039l12.609-4.862c.585-.211 1.096.142.905 1.028z"/></svg>